<mxfile host="Electron" modified="2024-01-10T14:43:04.150Z" agent="Mozilla/5.0 (Macintosh; Intel Mac OS X 10_15_7) AppleWebKit/537.36 (KHTML, like Gecko) draw.io/22.1.11 Chrome/114.0.5735.289 Electron/25.9.8 Safari/537.36" etag="VyYzONhozP8a-8ru5BUL" version="22.1.11" type="device">
  <diagram name="第 1 页" id="b5mSkbhJ9TMHFWA24EFK">
    <mxGraphModel dx="954" dy="617" grid="0" gridSize="10" guides="1" tooltips="1" connect="1" arrows="1" fold="1" page="1" pageScale="1" pageWidth="1169" pageHeight="1654" math="0" shadow="0">
      <root>
        <mxCell id="0" />
        <mxCell id="1" parent="0" />
        <mxCell id="Wwvuy24Hpc_Wd7kaBeGP-59" value="" style="rounded=0;whiteSpace=wrap;html=1;strokeColor=#990000;" vertex="1" parent="1">
          <mxGeometry x="48" y="434" width="899" height="87" as="geometry" />
        </mxCell>
        <mxCell id="Wwvuy24Hpc_Wd7kaBeGP-58" value="" style="rounded=0;whiteSpace=wrap;html=1;strokeColor=#990000;" vertex="1" parent="1">
          <mxGeometry x="48" y="344" width="899" height="87" as="geometry" />
        </mxCell>
        <mxCell id="Wwvuy24Hpc_Wd7kaBeGP-57" value="" style="rounded=0;whiteSpace=wrap;html=1;strokeColor=#990000;" vertex="1" parent="1">
          <mxGeometry x="48" y="255" width="899" height="87" as="geometry" />
        </mxCell>
        <mxCell id="Wwvuy24Hpc_Wd7kaBeGP-13" value="&lt;font face=&quot;Times New Roman&quot; style=&quot;font-size: 18px;&quot;&gt;&lt;b style=&quot;&quot;&gt;Column 1&lt;/b&gt;&lt;/font&gt;" style="text;html=1;strokeColor=none;fillColor=none;align=center;verticalAlign=middle;whiteSpace=wrap;rounded=0;" vertex="1" parent="1">
          <mxGeometry x="218" y="165" width="82" height="30" as="geometry" />
        </mxCell>
        <mxCell id="Wwvuy24Hpc_Wd7kaBeGP-14" value="&lt;font face=&quot;Times New Roman&quot; style=&quot;font-size: 18px;&quot;&gt;&lt;b style=&quot;&quot;&gt;Column 2&lt;/b&gt;&lt;/font&gt;" style="text;html=1;strokeColor=none;fillColor=none;align=center;verticalAlign=middle;whiteSpace=wrap;rounded=0;" vertex="1" parent="1">
          <mxGeometry x="372" y="165" width="82" height="30" as="geometry" />
        </mxCell>
        <mxCell id="Wwvuy24Hpc_Wd7kaBeGP-15" value="&lt;font face=&quot;Times New Roman&quot; style=&quot;font-size: 18px;&quot;&gt;&lt;b style=&quot;&quot;&gt;Column 3&lt;/b&gt;&lt;/font&gt;" style="text;html=1;strokeColor=none;fillColor=none;align=center;verticalAlign=middle;whiteSpace=wrap;rounded=0;" vertex="1" parent="1">
          <mxGeometry x="527" y="165" width="82" height="30" as="geometry" />
        </mxCell>
        <mxCell id="Wwvuy24Hpc_Wd7kaBeGP-16" value="&lt;font face=&quot;Times New Roman&quot; style=&quot;font-size: 18px;&quot;&gt;&lt;b style=&quot;&quot;&gt;Column 4&lt;/b&gt;&lt;/font&gt;" style="text;html=1;strokeColor=none;fillColor=none;align=center;verticalAlign=middle;whiteSpace=wrap;rounded=0;" vertex="1" parent="1">
          <mxGeometry x="677" y="165" width="82" height="30" as="geometry" />
        </mxCell>
        <mxCell id="Wwvuy24Hpc_Wd7kaBeGP-17" value="&lt;font face=&quot;Times New Roman&quot; style=&quot;font-size: 18px;&quot;&gt;&lt;b style=&quot;&quot;&gt;Column 5&lt;/b&gt;&lt;/font&gt;" style="text;html=1;strokeColor=none;fillColor=none;align=center;verticalAlign=middle;whiteSpace=wrap;rounded=0;" vertex="1" parent="1">
          <mxGeometry x="826" y="165" width="82" height="30" as="geometry" />
        </mxCell>
        <mxCell id="Wwvuy24Hpc_Wd7kaBeGP-18" value="&lt;font face=&quot;Times New Roman&quot; style=&quot;font-size: 18px;&quot;&gt;&lt;b style=&quot;&quot;&gt;Product&lt;/b&gt;&lt;/font&gt;" style="text;html=1;strokeColor=none;fillColor=none;align=center;verticalAlign=middle;whiteSpace=wrap;rounded=0;" vertex="1" parent="1">
          <mxGeometry x="220" y="221" width="82" height="30" as="geometry" />
        </mxCell>
        <mxCell id="Wwvuy24Hpc_Wd7kaBeGP-19" value="&lt;font face=&quot;Times New Roman&quot; style=&quot;font-size: 18px;&quot;&gt;&lt;b style=&quot;&quot;&gt;Customer&lt;/b&gt;&lt;/font&gt;" style="text;html=1;strokeColor=none;fillColor=none;align=center;verticalAlign=middle;whiteSpace=wrap;rounded=0;" vertex="1" parent="1">
          <mxGeometry x="373" y="219" width="82" height="30" as="geometry" />
        </mxCell>
        <mxCell id="Wwvuy24Hpc_Wd7kaBeGP-20" value="&lt;font face=&quot;Times New Roman&quot; style=&quot;font-size: 18px;&quot;&gt;&lt;b style=&quot;&quot;&gt;Country&lt;/b&gt;&lt;/font&gt;" style="text;html=1;strokeColor=none;fillColor=none;align=center;verticalAlign=middle;whiteSpace=wrap;rounded=0;" vertex="1" parent="1">
          <mxGeometry x="527" y="221" width="82" height="30" as="geometry" />
        </mxCell>
        <mxCell id="Wwvuy24Hpc_Wd7kaBeGP-21" value="&lt;font face=&quot;Times New Roman&quot; style=&quot;font-size: 18px;&quot;&gt;&lt;b style=&quot;&quot;&gt;Date&lt;/b&gt;&lt;/font&gt;" style="text;html=1;strokeColor=none;fillColor=none;align=center;verticalAlign=middle;whiteSpace=wrap;rounded=0;" vertex="1" parent="1">
          <mxGeometry x="677" y="221" width="82" height="30" as="geometry" />
        </mxCell>
        <mxCell id="Wwvuy24Hpc_Wd7kaBeGP-22" value="&lt;font face=&quot;Times New Roman&quot; style=&quot;font-size: 18px;&quot;&gt;&lt;b style=&quot;&quot;&gt;Sales Amount&lt;/b&gt;&lt;/font&gt;" style="text;html=1;strokeColor=none;fillColor=none;align=center;verticalAlign=middle;whiteSpace=wrap;rounded=0;" vertex="1" parent="1">
          <mxGeometry x="815" y="221" width="110" height="30" as="geometry" />
        </mxCell>
        <mxCell id="Wwvuy24Hpc_Wd7kaBeGP-23" value="&lt;font color=&quot;#ffffff&quot; style=&quot;font-size: 18px;&quot; face=&quot;Times New Roman&quot;&gt;&lt;b&gt;Ball&lt;/b&gt;&lt;/font&gt;" style="rounded=0;whiteSpace=wrap;html=1;fillColor=#FB8402;strokeColor=none;" vertex="1" parent="1">
          <mxGeometry x="205" y="260" width="120" height="35" as="geometry" />
        </mxCell>
        <mxCell id="Wwvuy24Hpc_Wd7kaBeGP-24" value="&lt;font color=&quot;#ffffff&quot; style=&quot;font-size: 18px;&quot; face=&quot;Times New Roman&quot;&gt;&lt;b&gt;T-Shirt&lt;/b&gt;&lt;/font&gt;" style="rounded=0;whiteSpace=wrap;html=1;fillColor=#FB8402;strokeColor=none;" vertex="1" parent="1">
          <mxGeometry x="205" y="304" width="120" height="35" as="geometry" />
        </mxCell>
        <mxCell id="Wwvuy24Hpc_Wd7kaBeGP-25" value="&lt;font color=&quot;#ffffff&quot; style=&quot;font-size: 18px;&quot; face=&quot;Times New Roman&quot;&gt;&lt;b&gt;Socks&lt;br&gt;&lt;/b&gt;&lt;/font&gt;" style="rounded=0;whiteSpace=wrap;html=1;fillColor=#FB8402;strokeColor=none;" vertex="1" parent="1">
          <mxGeometry x="205" y="348" width="120" height="35" as="geometry" />
        </mxCell>
        <mxCell id="Wwvuy24Hpc_Wd7kaBeGP-26" value="&lt;font color=&quot;#ffffff&quot; style=&quot;font-size: 18px;&quot; face=&quot;Times New Roman&quot;&gt;&lt;b&gt;Socks&lt;br&gt;&lt;/b&gt;&lt;/font&gt;" style="rounded=0;whiteSpace=wrap;html=1;fillColor=#FB8402;strokeColor=none;" vertex="1" parent="1">
          <mxGeometry x="205" y="392" width="120" height="35" as="geometry" />
        </mxCell>
        <mxCell id="Wwvuy24Hpc_Wd7kaBeGP-27" value="&lt;font color=&quot;#ffffff&quot; style=&quot;font-size: 18px;&quot; face=&quot;Times New Roman&quot;&gt;&lt;b&gt;T-Shirt&lt;/b&gt;&lt;/font&gt;" style="rounded=0;whiteSpace=wrap;html=1;fillColor=#FB8402;strokeColor=none;" vertex="1" parent="1">
          <mxGeometry x="205" y="436" width="120" height="35" as="geometry" />
        </mxCell>
        <mxCell id="Wwvuy24Hpc_Wd7kaBeGP-28" value="&lt;font color=&quot;#ffffff&quot; style=&quot;font-size: 18px;&quot; face=&quot;Times New Roman&quot;&gt;&lt;b&gt;Socks&lt;br&gt;&lt;/b&gt;&lt;/font&gt;" style="rounded=0;whiteSpace=wrap;html=1;fillColor=#FB8402;strokeColor=none;" vertex="1" parent="1">
          <mxGeometry x="205" y="480" width="120" height="35" as="geometry" />
        </mxCell>
        <mxCell id="Wwvuy24Hpc_Wd7kaBeGP-29" value="&lt;font face=&quot;Times New Roman&quot; style=&quot;font-size: 18px;&quot;&gt;&lt;b style=&quot;&quot;&gt;Row Group 1&lt;br&gt;&lt;/b&gt;&lt;/font&gt;" style="text;html=1;strokeColor=none;fillColor=none;align=center;verticalAlign=middle;whiteSpace=wrap;rounded=0;" vertex="1" parent="1">
          <mxGeometry x="49" y="284" width="118" height="30" as="geometry" />
        </mxCell>
        <mxCell id="Wwvuy24Hpc_Wd7kaBeGP-30" value="&lt;font face=&quot;Times New Roman&quot; style=&quot;font-size: 18px;&quot;&gt;&lt;b style=&quot;&quot;&gt;Row Group 2&lt;br&gt;&lt;/b&gt;&lt;/font&gt;" style="text;html=1;strokeColor=none;fillColor=none;align=center;verticalAlign=middle;whiteSpace=wrap;rounded=0;" vertex="1" parent="1">
          <mxGeometry x="49" y="371" width="118" height="30" as="geometry" />
        </mxCell>
        <mxCell id="Wwvuy24Hpc_Wd7kaBeGP-31" value="&lt;font face=&quot;Times New Roman&quot; style=&quot;font-size: 18px;&quot;&gt;&lt;b style=&quot;&quot;&gt;Row Group 3&lt;br&gt;&lt;/b&gt;&lt;/font&gt;" style="text;html=1;strokeColor=none;fillColor=none;align=center;verticalAlign=middle;whiteSpace=wrap;rounded=0;" vertex="1" parent="1">
          <mxGeometry x="49" y="458" width="118" height="30" as="geometry" />
        </mxCell>
        <mxCell id="Wwvuy24Hpc_Wd7kaBeGP-32" value="&lt;font color=&quot;#ffffff&quot; style=&quot;font-size: 18px;&quot; face=&quot;Times New Roman&quot;&gt;&lt;b&gt;John Doe&lt;/b&gt;&lt;/font&gt;" style="rounded=0;whiteSpace=wrap;html=1;fillColor=#90C9E6;strokeColor=none;" vertex="1" parent="1">
          <mxGeometry x="357" y="260" width="120" height="35" as="geometry" />
        </mxCell>
        <mxCell id="Wwvuy24Hpc_Wd7kaBeGP-33" value="&lt;font color=&quot;#ffffff&quot; style=&quot;font-size: 18px;&quot; face=&quot;Times New Roman&quot;&gt;&lt;b&gt;John Doe&lt;/b&gt;&lt;/font&gt;" style="rounded=0;whiteSpace=wrap;html=1;fillColor=#90C9E6;strokeColor=none;" vertex="1" parent="1">
          <mxGeometry x="357" y="304" width="120" height="35" as="geometry" />
        </mxCell>
        <mxCell id="Wwvuy24Hpc_Wd7kaBeGP-34" value="&lt;font color=&quot;#ffffff&quot; style=&quot;font-size: 18px;&quot; face=&quot;Times New Roman&quot;&gt;&lt;b&gt;Maria Adams&lt;/b&gt;&lt;/font&gt;" style="rounded=0;whiteSpace=wrap;html=1;fillColor=#90C9E6;strokeColor=none;" vertex="1" parent="1">
          <mxGeometry x="357" y="348" width="120" height="35" as="geometry" />
        </mxCell>
        <mxCell id="Wwvuy24Hpc_Wd7kaBeGP-35" value="&lt;font color=&quot;#ffffff&quot; style=&quot;font-size: 18px;&quot; face=&quot;Times New Roman&quot;&gt;&lt;b&gt;Antonio Grant&lt;/b&gt;&lt;/font&gt;" style="rounded=0;whiteSpace=wrap;html=1;fillColor=#90C9E6;strokeColor=none;" vertex="1" parent="1">
          <mxGeometry x="357" y="392" width="120" height="35" as="geometry" />
        </mxCell>
        <mxCell id="Wwvuy24Hpc_Wd7kaBeGP-36" value="&lt;b style=&quot;border-color: var(--border-color); color: rgb(255, 255, 255); font-family: &amp;quot;Times New Roman&amp;quot;; font-size: 18px;&quot;&gt;Maria Adams&lt;/b&gt;" style="rounded=0;whiteSpace=wrap;html=1;fillColor=#90C9E6;strokeColor=none;" vertex="1" parent="1">
          <mxGeometry x="357" y="436" width="120" height="35" as="geometry" />
        </mxCell>
        <mxCell id="Wwvuy24Hpc_Wd7kaBeGP-37" value="&lt;font color=&quot;#ffffff&quot; style=&quot;font-size: 18px;&quot; face=&quot;Times New Roman&quot;&gt;&lt;b&gt;John Doe&lt;/b&gt;&lt;/font&gt;" style="rounded=0;whiteSpace=wrap;html=1;fillColor=#90C9E6;strokeColor=none;" vertex="1" parent="1">
          <mxGeometry x="357" y="480" width="120" height="35" as="geometry" />
        </mxCell>
        <mxCell id="Wwvuy24Hpc_Wd7kaBeGP-38" value="&lt;font color=&quot;#ffffff&quot; style=&quot;font-size: 18px;&quot; face=&quot;Times New Roman&quot;&gt;&lt;b&gt;USA&lt;/b&gt;&lt;/font&gt;" style="rounded=0;whiteSpace=wrap;html=1;fillColor=#FFB703;strokeColor=none;" vertex="1" parent="1">
          <mxGeometry x="508" y="260" width="120" height="35" as="geometry" />
        </mxCell>
        <mxCell id="Wwvuy24Hpc_Wd7kaBeGP-39" value="&lt;b style=&quot;border-color: var(--border-color); color: rgb(255, 255, 255); font-family: &amp;quot;Times New Roman&amp;quot;; font-size: 18px;&quot;&gt;USA&lt;/b&gt;" style="rounded=0;whiteSpace=wrap;html=1;fillColor=#FFB703;strokeColor=none;" vertex="1" parent="1">
          <mxGeometry x="508" y="304" width="120" height="35" as="geometry" />
        </mxCell>
        <mxCell id="Wwvuy24Hpc_Wd7kaBeGP-40" value="&lt;font color=&quot;#ffffff&quot; style=&quot;font-size: 18px;&quot; face=&quot;Times New Roman&quot;&gt;&lt;b&gt;UK&lt;br&gt;&lt;/b&gt;&lt;/font&gt;" style="rounded=0;whiteSpace=wrap;html=1;fillColor=#FFB703;strokeColor=none;" vertex="1" parent="1">
          <mxGeometry x="508" y="348" width="120" height="35" as="geometry" />
        </mxCell>
        <mxCell id="Wwvuy24Hpc_Wd7kaBeGP-41" value="&lt;b style=&quot;border-color: var(--border-color); color: rgb(255, 255, 255); font-family: &amp;quot;Times New Roman&amp;quot;; font-size: 18px;&quot;&gt;USA&lt;/b&gt;" style="rounded=0;whiteSpace=wrap;html=1;fillColor=#FFB703;strokeColor=none;" vertex="1" parent="1">
          <mxGeometry x="508" y="392" width="120" height="35" as="geometry" />
        </mxCell>
        <mxCell id="Wwvuy24Hpc_Wd7kaBeGP-42" value="&lt;b style=&quot;border-color: var(--border-color); color: rgb(255, 255, 255); font-family: &amp;quot;Times New Roman&amp;quot;; font-size: 18px;&quot;&gt;UK&lt;/b&gt;" style="rounded=0;whiteSpace=wrap;html=1;fillColor=#FFB703;strokeColor=none;" vertex="1" parent="1">
          <mxGeometry x="508" y="436" width="120" height="35" as="geometry" />
        </mxCell>
        <mxCell id="Wwvuy24Hpc_Wd7kaBeGP-43" value="&lt;b style=&quot;border-color: var(--border-color); color: rgb(255, 255, 255); font-family: &amp;quot;Times New Roman&amp;quot;; font-size: 18px;&quot;&gt;USA&lt;/b&gt;" style="rounded=0;whiteSpace=wrap;html=1;fillColor=#FFB703;strokeColor=none;" vertex="1" parent="1">
          <mxGeometry x="508" y="480" width="120" height="35" as="geometry" />
        </mxCell>
        <mxCell id="Wwvuy24Hpc_Wd7kaBeGP-44" value="&lt;font color=&quot;#ffffff&quot; style=&quot;font-size: 18px;&quot; face=&quot;Times New Roman&quot;&gt;&lt;b&gt;2023-01-01&lt;/b&gt;&lt;/font&gt;" style="rounded=0;whiteSpace=wrap;html=1;fillColor=#219EBC;strokeColor=none;" vertex="1" parent="1">
          <mxGeometry x="660" y="260" width="120" height="35" as="geometry" />
        </mxCell>
        <mxCell id="Wwvuy24Hpc_Wd7kaBeGP-45" value="&lt;b style=&quot;border-color: var(--border-color); color: rgb(255, 255, 255); font-family: &amp;quot;Times New Roman&amp;quot;; font-size: 18px;&quot;&gt;2023-01-02&lt;/b&gt;" style="rounded=0;whiteSpace=wrap;html=1;fillColor=#219EBC;strokeColor=none;" vertex="1" parent="1">
          <mxGeometry x="660" y="304" width="120" height="35" as="geometry" />
        </mxCell>
        <mxCell id="Wwvuy24Hpc_Wd7kaBeGP-46" value="&lt;b style=&quot;border-color: var(--border-color); color: rgb(255, 255, 255); font-family: &amp;quot;Times New Roman&amp;quot;; font-size: 18px;&quot;&gt;2023-01-01&lt;/b&gt;&lt;font color=&quot;#ffffff&quot; style=&quot;font-size: 18px;&quot; face=&quot;Times New Roman&quot;&gt;&lt;b&gt;&lt;br&gt;&lt;/b&gt;&lt;/font&gt;" style="rounded=0;whiteSpace=wrap;html=1;fillColor=#219EBC;strokeColor=none;" vertex="1" parent="1">
          <mxGeometry x="660" y="348" width="120" height="35" as="geometry" />
        </mxCell>
        <mxCell id="Wwvuy24Hpc_Wd7kaBeGP-47" value="&lt;b style=&quot;border-color: var(--border-color); color: rgb(255, 255, 255); font-family: &amp;quot;Times New Roman&amp;quot;; font-size: 18px;&quot;&gt;2023-01-03&lt;/b&gt;" style="rounded=0;whiteSpace=wrap;html=1;fillColor=#219EBC;strokeColor=none;" vertex="1" parent="1">
          <mxGeometry x="660" y="392" width="120" height="35" as="geometry" />
        </mxCell>
        <mxCell id="Wwvuy24Hpc_Wd7kaBeGP-48" value="&lt;b style=&quot;border-color: var(--border-color); color: rgb(255, 255, 255); font-family: &amp;quot;Times New Roman&amp;quot;; font-size: 18px;&quot;&gt;2023-01-02&lt;/b&gt;" style="rounded=0;whiteSpace=wrap;html=1;fillColor=#219EBC;strokeColor=none;" vertex="1" parent="1">
          <mxGeometry x="660" y="436" width="120" height="35" as="geometry" />
        </mxCell>
        <mxCell id="Wwvuy24Hpc_Wd7kaBeGP-49" value="&lt;b style=&quot;border-color: var(--border-color); color: rgb(255, 255, 255); font-family: &amp;quot;Times New Roman&amp;quot;; font-size: 18px;&quot;&gt;2023-01-05&lt;/b&gt;" style="rounded=0;whiteSpace=wrap;html=1;fillColor=#219EBC;strokeColor=none;" vertex="1" parent="1">
          <mxGeometry x="660" y="480" width="120" height="35" as="geometry" />
        </mxCell>
        <mxCell id="Wwvuy24Hpc_Wd7kaBeGP-51" value="&lt;font color=&quot;#ffffff&quot; style=&quot;font-size: 18px;&quot; face=&quot;Times New Roman&quot;&gt;&lt;b&gt;100&lt;/b&gt;&lt;/font&gt;" style="rounded=0;whiteSpace=wrap;html=1;fillColor=#023047;strokeColor=none;" vertex="1" parent="1">
          <mxGeometry x="810" y="260" width="120" height="35" as="geometry" />
        </mxCell>
        <mxCell id="Wwvuy24Hpc_Wd7kaBeGP-52" value="&lt;b style=&quot;border-color: var(--border-color); color: rgb(255, 255, 255); font-family: &amp;quot;Times New Roman&amp;quot;; font-size: 18px;&quot;&gt;200&lt;/b&gt;" style="rounded=0;whiteSpace=wrap;html=1;fillColor=#023047;strokeColor=none;" vertex="1" parent="1">
          <mxGeometry x="810" y="304" width="120" height="35" as="geometry" />
        </mxCell>
        <mxCell id="Wwvuy24Hpc_Wd7kaBeGP-53" value="&lt;font color=&quot;#ffffff&quot; style=&quot;font-size: 18px;&quot; face=&quot;Times New Roman&quot;&gt;&lt;b&gt;300&lt;br&gt;&lt;/b&gt;&lt;/font&gt;" style="rounded=0;whiteSpace=wrap;html=1;fillColor=#023047;strokeColor=none;" vertex="1" parent="1">
          <mxGeometry x="810" y="348" width="120" height="35" as="geometry" />
        </mxCell>
        <mxCell id="Wwvuy24Hpc_Wd7kaBeGP-54" value="&lt;b style=&quot;border-color: var(--border-color); color: rgb(255, 255, 255); font-family: &amp;quot;Times New Roman&amp;quot;; font-size: 18px;&quot;&gt;100&lt;/b&gt;" style="rounded=0;whiteSpace=wrap;html=1;fillColor=#023047;strokeColor=none;" vertex="1" parent="1">
          <mxGeometry x="810" y="392" width="120" height="35" as="geometry" />
        </mxCell>
        <mxCell id="Wwvuy24Hpc_Wd7kaBeGP-55" value="&lt;b style=&quot;border-color: var(--border-color); color: rgb(255, 255, 255); font-family: &amp;quot;Times New Roman&amp;quot;; font-size: 18px;&quot;&gt;500&lt;/b&gt;" style="rounded=0;whiteSpace=wrap;html=1;fillColor=#023047;strokeColor=none;" vertex="1" parent="1">
          <mxGeometry x="810" y="436" width="120" height="35" as="geometry" />
        </mxCell>
        <mxCell id="Wwvuy24Hpc_Wd7kaBeGP-56" value="&lt;b style=&quot;border-color: var(--border-color); color: rgb(255, 255, 255); font-family: &amp;quot;Times New Roman&amp;quot;; font-size: 18px;&quot;&gt;200&lt;/b&gt;" style="rounded=0;whiteSpace=wrap;html=1;fillColor=#023047;strokeColor=none;" vertex="1" parent="1">
          <mxGeometry x="810" y="480" width="120" height="35" as="geometry" />
        </mxCell>
      </root>
    </mxGraphModel>
  </diagram>
</mxfile>
